<svg id="图层_1" data-name="图层 1" xmlns="http://www.w3.org/2000/svg" viewBox="0 0 88.57 109.34"><title>svg</title><path d="M415.61,248.37V237.25c31.87-4.76,62,9,69.15,43.38,7.1,34-19,64.92-53.72,65H415.6V273.52H427v60.1a39.17,39.17,0,0,0,17.87-1.81c20.1-6.72,32-26.52,28.82-47.82-3-19.68-20.66-35-41.13-35.59C427,248.24,421.4,248.37,415.61,248.37Z" transform="translate(-397.36 -236.33)"/><path d="M436,255.41c-12.64-.87-25.38-.3-38.07-.35-.19,0-.38.28-.61.46v71.56h11.39V266.56c7.46,0,14.41,0,21.36,0,13.23,0,24,8.84,25.59,21,1.74,13.12-6,24.05-19.47,27.71l-.12,0V327c.37,0,.72,0,1.06-.08,17.26-2.32,30.77-18.52,30.49-36.53C467.38,272.7,453.36,256.61,436,255.41Z" transform="translate(-397.36 -236.33)"/></svg>