<svg id="图层_1" data-name="图层 1" xmlns="http://www.w3.org/2000/svg" viewBox="0 0 553.5 414.61"><title>sbg2</title><path d="M389.85,135.58V103.45c92-13.75,178.94,26,199.72,125.3,20.51,98.08-54.77,187.49-155.16,187.81-14.65.05-29.29,0-44.57,0V208.2h32.87V381.78a113.24,113.24,0,0,0,51.59-5.23c58.06-19.42,92.49-76.58,83.22-138.1-8.56-56.84-59.66-101.2-118.76-102.8C422.68,135.21,406.58,135.58,389.85,135.58Z" transform="translate(-152.5 -100.81)"/><path d="M448.85,155.92c-36.49-2.53-73.27-.88-109.93-1-.55,0-1.11.81-1.76,1.31V362.9h32.9V188.1c21.53,0,41.6,0,61.67,0,38.23.09,69.24,25.53,73.9,60.55,5,37.89-17.3,69.48-56.22,80-.11,0-.23.09-.34.13v33.88c1.06-.05,2.07-.11,3.06-.25C502,355.75,541,309,540.17,257,539.36,205.84,498.89,159.38,448.85,155.92Z" transform="translate(-152.5 -100.81)"/><path d="M169.55,514.26H152.5V456.34h16.64q28.71,1.92,30.37,28.77Q197.85,512,169.55,514.26ZM169.14,464h-7.91v42.58h8.32q20-1.53,20.81-21.48Q189.52,465.16,169.14,464Z" transform="translate(-152.5 -100.81)"/><path d="M271.15,506.59v7.67H232.88V456.34h37V464H242v15.34h23.3V487H242v19.56Z" transform="translate(-152.5 -100.81)"/><path d="M346.54,512l-9.15,2.3-24.14-27.62v27.62h-8.73V456.34h16.64q20.38,1.14,21.63,17.26,0,12.28-16.22,16.11ZM321.16,464h-7.91v20.33h7.91Q333.22,484,333.64,474,333.22,464.4,321.16,464Z" transform="translate(-152.5 -100.81)"/><path d="M387,514.26h-8.74V455.18H387Z" transform="translate(-152.5 -100.81)"/><path d="M447.8,485.49h35.37q-1.26,28.77-30,29.93-31.62-1.54-32.87-30.31,2.09-28.39,33.29-29.93,15.81.39,26.21,9.21l-5.41,6.14a29.63,29.63,0,0,0-20.8-8q-22.89.76-24.13,23,1.25,21.11,23.71,22.25,17.48-.37,20.39-15H447.8Z" transform="translate(-152.5 -100.81)"/><path d="M525.27,514.26h-8.74V455.18h8.74Z" transform="translate(-152.5 -100.81)"/><path d="M624.37,485.11q-2.49,28-32.86,30.31-30.37-2.31-32.87-30.31,2.49-28,32.87-29.93Q622.29,457.49,624.37,485.11Zm-9.15,0q-1.66-20.72-23.71-22.25-22.07,1.53-23.72,22.25,1.66,21.11,23.72,22.63Q613.55,505.84,615.22,485.11Z" transform="translate(-152.5 -100.81)"/><path d="M701.84,514.26l-36.2-41.43v41.43h-8.73V455.18h4.16l36.19,41.05V455.18H706v59.08Z" transform="translate(-152.5 -100.81)"/></svg>